<?xml version="1.0" standalone="no"?>
<!DOCTYPE svg PUBLIC "-//W3C//DTD SVG 20010904//EN"
 "http://www.w3.org/TR/2001/REC-SVG-20010904/DTD/svg10.dtd">
<svg version="1.0" xmlns="http://www.w3.org/2000/svg"
 width="512.000000pt" height="512.000000pt" viewBox="0 0 512.000000 512.000000"
 preserveAspectRatio="xMidYMid meet">

<g transform="translate(0.000000,512.000000) scale(0.100000,-0.100000)"
fill="#000000" stroke="none">
<path d="M1398 4590 c-657 -329 -1061 -537 -1068 -549 -14 -27 -14 -2775 0
-2802 12 -22 2117 -1079 2149 -1079 20 0 561 265 561 275 0 13 -65 135 -72
135 -5 0 -98 -45 -208 -100 l-200 -100 0 1270 0 1270 960 480 960 480 0 -850
c0 -801 1 -851 18 -856 9 -4 45 -19 80 -35 l62 -28 0 960 c0 650 -3 967 -10
980 -13 24 -2119 1079 -2152 1078 -13 0 -499 -238 -1080 -529z m2027 -112
c520 -260 945 -475 945 -478 0 -3 -425 -218 -945 -478 l-945 -472 -945 472
c-520 260 -945 475 -945 478 0 4 1874 946 1887 949 2 1 428 -212 948 -471z
m-1025 -2838 l0 -1270 -960 480 -960 480 0 1270 0 1270 960 -480 960 -480 0
-1270z"/>
<path d="M3908 2065 c-201 -34 -386 -127 -537 -270 -93 -89 -150 -163 -207
-269 -276 -519 -70 -1154 461 -1418 507 -253 1127 -41 1385 472 150 298 145
647 -14 946 -210 394 -651 613 -1088 539z m312 -145 c338 -54 613 -299 717
-637 24 -79 27 -103 27 -243 0 -140 -3 -164 -27 -243 -50 -162 -124 -284 -243
-398 -115 -109 -218 -169 -371 -216 -79 -24 -103 -27 -243 -27 -140 0 -164 3
-243 27 -153 47 -256 107 -371 216 -370 354 -370 928 0 1282 132 126 269 198
444 234 80 16 223 18 310 5z"/>
<path d="M4025 1575 c-25 -24 -25 -24 -25 -240 l0 -215 -215 0 c-216 0 -216 0
-240 -25 -33 -32 -33 -78 0 -110 24 -25 24 -25 240 -25 l215 0 0 -215 c0 -216
0 -216 25 -240 32 -33 78 -33 110 0 25 24 25 24 25 240 l0 215 215 0 c216 0
216 0 240 25 33 32 33 78 0 110 -24 25 -24 25 -240 25 l-215 0 0 215 c0 216 0
216 -25 240 -15 16 -36 25 -55 25 -19 0 -40 -9 -55 -25z"/>
</g>
</svg>
